<svg width="32" height="32" viewBox="0 0 32 32" fill="none" xmlns="http://www.w3.org/2000/svg">
<path d="M28.9995 16C28.9991 18.0139 28.5308 20.0002 27.6317 21.8023C26.7325 23.6043 25.4271 25.1729 23.8183 26.3844C22.2095 27.5958 20.3413 28.417 18.361 28.7832C16.3806 29.1494 14.3423 29.0506 12.4066 28.4946L13.6337 23.5865C14.6471 24.2022 15.8139 24.5189 16.9995 24.5C21.4108 24.5 24.9995 20.6869 24.9995 16C24.9987 14.6729 24.7043 13.3623 24.1376 12.1623C23.5708 10.9622 22.7457 9.9024 21.7213 9.05867C20.6968 8.21493 19.4985 7.6082 18.2121 7.28194C16.9257 6.95567 15.583 6.91794 14.2803 7.17145C12.9776 7.42497 11.7471 7.96345 10.6769 8.74832C9.60674 9.53319 8.72339 10.545 8.09014 11.7114C7.45689 12.8777 7.08942 14.1696 7.01405 15.4946C6.93868 16.8196 7.15728 18.1449 7.65418 19.3755C7.7537 19.6213 7.94681 19.8176 8.19102 19.921C8.43522 20.0245 8.71053 20.0267 8.95637 19.9272C9.20221 19.8277 9.39845 19.6346 9.50191 19.3904C9.60537 19.1461 9.60759 18.8708 9.50807 18.625C9.12101 17.6676 8.95054 16.6365 9.00886 15.6055C9.06718 14.5745 9.35285 13.5692 9.84539 12.6616C10.3379 11.754 11.0252 10.9666 11.8578 10.3559C12.6904 9.7451 13.6479 9.32609 14.6615 9.12887C15.6751 8.93165 16.7199 8.9611 17.7208 9.21512C18.7217 9.46914 19.654 9.94143 20.4509 10.5981C21.2478 11.2549 21.8896 12.0797 22.3302 13.0136C22.7708 13.9475 22.9994 14.9674 22.9995 16C22.9995 19.5841 20.3079 22.5 16.9995 22.5C15.6882 22.5 14.7769 22.0424 14.1557 21.4984L15.9697 14.2426C16.034 13.9853 15.9935 13.7129 15.857 13.4855C15.7206 13.2581 15.4994 13.0942 15.2421 13.0298C14.9848 12.9655 14.7125 13.006 14.485 13.1425C14.2576 13.2789 14.0937 13.5001 14.0294 13.7574L10.5218 27.7877C8.40819 26.8055 6.59755 25.273 5.27945 23.3508C3.96136 21.4287 3.1843 19.1875 3.02963 16.8619C2.87497 14.5363 3.34839 12.212 4.40034 10.1322C5.45228 8.05236 7.04404 6.29363 9.00895 5.04013C10.9739 3.78663 13.2397 3.08446 15.5691 3.00715C17.8985 2.92985 20.2058 3.48024 22.2495 4.6007C24.2932 5.72116 25.9981 7.37048 27.1856 9.37596C28.3732 11.3814 28.9997 13.6693 28.9995 16Z" fill="white"/>
</svg>
