<?xml version="1.0" standalone="no"?>
<!DOCTYPE svg PUBLIC "-//W3C//DTD SVG 20010904//EN"
 "http://www.w3.org/TR/2001/REC-SVG-20010904/DTD/svg10.dtd">
<svg version="1.0" xmlns="http://www.w3.org/2000/svg"
 width="948.000000pt" height="948.000000pt" viewBox="0 0 948.000000 948.000000"
 preserveAspectRatio="xMidYMid meet">
<metadata>
Created by potrace 1.14, written by Peter Selinger 2001-2017
</metadata>
<g transform="translate(0.000000,948.000000) scale(0.100000,-0.100000)"
fill="#000000" stroke="none">
<path d="M4658 8805 c-2 -1 -46 -6 -98 -9 -52 -4 -106 -8 -120 -10 -14 -2 -52
-7 -85 -11 -32 -4 -66 -8 -75 -10 -8 -1 -36 -6 -63 -9 -197 -27 -544 -119
-790 -210 -208 -77 -517 -228 -717 -349 -166 -101 -491 -344 -610 -456 -299
-282 -501 -517 -682 -791 -225 -344 -363 -629 -493 -1025 -53 -161 -127 -452
-141 -550 -1 -11 -5 -36 -9 -55 -8 -44 -9 -45 -31 -215 -19 -148 -26 -645 -12
-810 19 -216 55 -431 110 -655 42 -173 151 -504 203 -615 7 -16 28 -64 46
-105 17 -41 56 -122 86 -180 47 -89 78 -144 188 -328 53 -90 210 -310 271
-382 104 -121 163 -189 184 -211 215 -224 291 -295 505 -467 76 -61 325 -233
415 -287 277 -164 608 -313 895 -401 61 -19 124 -38 140 -44 86 -26 274 -68
430 -95 17 -2 68 -10 115 -15 47 -6 99 -13 115 -15 197 -27 746 -27 905 0 14
2 52 7 85 10 33 3 67 8 75 10 8 2 37 6 63 10 26 3 71 10 100 16 29 6 63 12 77
15 39 7 232 54 265 64 356 110 488 161 765 300 204 102 345 186 524 314 296
212 520 415 746 675 30 35 60 69 65 75 6 6 42 52 81 101 186 239 384 565 494
815 23 52 50 114 60 137 11 22 31 74 45 115 57 157 86 244 91 263 2 11 8 31
14 45 7 20 46 168 66 253 2 9 6 27 9 40 5 20 32 157 41 202 8 48 35 267 42
345 9 109 9 569 0 680 -7 85 -33 297 -42 335 -2 11 -11 61 -21 110 -21 115
-50 237 -81 345 -28 95 -110 344 -124 375 -4 11 -32 76 -61 145 -146 350 -376
723 -640 1036 -110 132 -207 232 -393 409 -26 25 -72 63 -233 195 -99 81 -382
270 -508 340 -142 79 -399 202 -515 247 -196 76 -544 181 -685 207 -184 33
-309 51 -490 72 -53 6 -591 14 -597 9z"/>
</g>
</svg>
